<?xml version="1.0" encoding="utf-8"?>
<!-- Generator: Adobe Illustrator 19.0.0, SVG Export Plug-In . SVG Version: 6.00 Build 0)  -->
<svg version="1.1" id="svg" xmlns="http://www.w3.org/2000/svg" xmlns:xlink="http://www.w3.org/1999/xlink" x="0px" y="0px"
	 viewBox="-97 162.2 400 517.7" style="enable-background:new -97 162.2 400 517.7;" xml:space="preserve">
<style type="text/css">
	.st0{fill:#C4CBCB;}
	.st1{display:none;fill:#FBFBFC;}
	.st2{fill:#DCDCDE;}
	.st3{fill:#E3E4E4;}
	.st4{fill:#D4DCDC;}
</style>
<path id="path0" class="st0" d="M82.2,241.4c-26.9,2.1-48.8,11.4-65.2,27.9c-14.9,15-18.6,26.4-19.1,58.8
	c-0.3,23.2,0.4,30.4,3.9,37.5c2.9,5.8,4,9.3,4.3,13.4c0.3,3.9,0,4.5-1.8,3.2c-5.4-3.9-8.2,1.4-7.5,14.5c0.4,9.1,1.9,15.7,7,31.2
	c4.8,14.8,4.8,14.7,11,13.2c2.7-0.6,2.4-1,3.3,4.2c0.8,4.9,2.2,9.9,3.9,13.2c0.6,1.3,1.2,2.5,1.2,2.6c0,0.1,1.1,2.4,2.4,5.1
	c12,25.2,13.1,32.7,7.8,55.7c-3.5,15-4.3,15.8-25.4,25.1c-14.8,6.5-19.9,8.7-23.2,10.3c-1.9,0.9-3.6,1.6-3.7,1.6s-2,0.9-4.3,2
	c-2.3,1.1-5,2.4-6.1,2.8c-19.6,8.8-33.6,17.7-49.4,31.6l-6.2,5.4l188.2,0.1c103.5,0.1,188.2,0,188.3-0.1c1.7-1.7-5.7-9.2-13.7-13.8
	c-0.7-0.4-2.8-1.6-4.8-2.8c-3.6-2.1-4.7-2.7-9.1-5.2c-1.3-0.7-3.2-1.8-4.3-2.5c-1.1-0.6-4.4-2.3-7.5-3.8c-8-3.8-12.5-5.9-16.7-7.5
	c-1.5-0.6-3.1-1.3-3.4-1.4c-0.6-0.3-12.1-4.9-34.8-13.7c-30.3-11.8-34.5-14.7-37.4-25.5c-2.7-10.4-1.5-39.3,2-47
	c0.3-0.7,0.6-1.4,0.6-1.5c0-0.1,2-4.2,4.4-9.1c5.7-11.6,6.4-13.6,6.7-20.3c0.1-2.9,0.4-5.2,0.5-5.2c0.2,0,0.9,0.3,1.6,0.6
	c4.8,2.4,8.4-1.5,9.7-10.1c0.4-3.1,1.1-7,1.6-8.6c4.4-16.9,4.7-18.5,5.4-23.9c1.1-8.8-1.2-13.9-6.7-14.6c-2.2-0.3-2.7-0.7-1.6-1.3
	c3.6-1.9,9.3-13.2,11-22c2-9.8,1.2-38.3-1.4-51.3c-0.2-1.1-0.8-4.1-1.3-6.7c-2-10.7-6.1-21.6-10.8-28.7c-0.6-0.9-1.1-1.8-1.1-2
	c0-0.4-4.2-5.4-6.1-7.2c-3-2.9-3.5-3-14.9-2.9c-5.5,0-10.3,0-10.5,0c-0.2,0-0.5-1-0.6-2.1C146.9,246.8,118.8,238.6,82.2,241.4"/>
<path id="path1" class="st1" d="M-97,421v258.8h200h200V421V162.2H103H-97V421 M114.3,241.6c21.2,2.6,33.5,9.4,34.4,19l0.2,1.8
	l1.6-0.1c10.2-0.5,18.8-0.3,20.6,0.5c6.8,3.1,15.7,17.8,19.7,32.8c1.2,4.5,1.8,7.4,3.5,17.3c1.5,8.9,2.7,32.1,2,39.7
	c-1.2,13.6-4.7,23.1-11.2,30c-1.3,1.4-1.3,1.5-0.5,1.5c1.7,0,4.3,1.3,5.8,2.9c3.6,3.8,3.1,11.6-1.9,30.9c-2,7.6-2.8,11.9-3.2,15.8
	c-0.6,6.7-5.2,10.5-10.4,8.6c-0.8-0.3-0.9-0.2-1.1,4.6c-0.3,6.8-0.6,7.7-7.7,22.1c-6.6,13.5-7,15.4-7.3,34.3
	c-0.5,29.5,0.8,31.2,35.5,44.9c35.4,14,34.9,13.8,45.2,18.3c7.8,3.4,8,3.5,14.6,6.7c3.3,1.6,7.1,3.7,8.5,4.5
	c1.4,0.8,2.6,1.5,2.7,1.5c0.6,0,14.7,8.4,18,10.7c5.3,3.7,8.5,7.6,8.5,10.4v0.9H103c-103.8,0-188.8-0.1-188.8-0.3
	c0-0.7,10.5-9.8,17.8-15.5c6.7-5.3,11.7-8.5,20-13c5.2-2.8,11.5-6,12-6c0.3,0,0.6-0.1,0.7-0.3c0.1-0.3,2.2-1.3,16.5-7.9
	c11.1-5.1,10.6-4.9,21-9.4c5.2-2.2,10.8-4.8,12.6-5.6c1.8-0.8,3.9-1.8,4.8-2.2c7.3-3.4,10-6.9,12.4-16.5c6.3-25.6,5.6-31.6-7.2-58.5
	c-4.4-9.3-6.2-14.4-7.2-20.4c-0.8-4.9-0.5-4.6-3-4c-6.2,1.3-6.4,1.1-11.1-13.4c-6.9-21-8.9-35.3-6.3-43.8c1.1-3.7,4.3-5.1,6.7-2.9
	c3.7,3.3,2.2-6.7-2.3-15.6c-3.3-6.6-3.7-9.1-4-28.2c-0.5-29.5,2.1-45.4,9-56.2C26.1,251,67,235.9,114.3,241.6"/>
<path id="path2" class="st2" d="M94.5,240.9c0.5,0.1,1.3,0.1,1.8,0c0.5-0.1,0.1-0.2-0.9-0.2C94.4,240.7,94,240.8,94.5,240.9
	 M-2.5,327.2c0,2,0.1,2.8,0.2,1.9s0.1-2.5,0-3.6C-2.4,324.5-2.5,325.2-2.5,327.2 M-2.5,336c0,1.5,0.1,2.1,0.2,1.3
	c0.1-0.8,0.1-2.1,0-2.8C-2.4,333.8-2.5,334.5-2.5,336 M173.6,442c-0.1,0.3-0.2,0.9-0.1,1.3c0.1,0.5,0.2,0.2,0.4-0.6
	C174.1,441.3,173.9,441,173.6,442 M158.3,503.4c0,1,0.1,1.4,0.2,0.9c0.1-0.5,0.1-1.3,0-1.8C158.4,502,158.3,502.4,158.3,503.4
	 M158.3,513.2c0,0.9,0.1,1.2,0.2,0.7c0.1-0.5,0.1-1.2,0-1.6C158.4,511.9,158.3,512.3,158.3,513.2 M115.7,601.3
	c24.5,0.1,64.5,0.1,89,0c24.5-0.1,4.4-0.1-44.5-0.1S91.2,601.2,115.7,601.3"/>
<path id="path3" class="st3" d="M88.1,240.9c1.2,0.1,3,0.1,4,0c1-0.1,0.1-0.1-2.1-0.1C87.8,240.7,87,240.8,88.1,240.9 M98.5,240.9
	c0.9,0.1,2.5,0.1,3.4,0c0.9-0.1,0.2-0.2-1.7-0.2C98.3,240.7,97.6,240.8,98.5,240.9 M80.9,241.3c0.5,0.1,1.2,0.1,1.6,0
	c0.4-0.1,0-0.2-0.9-0.2C80.7,241.1,80.4,241.2,80.9,241.3 M108.5,241.3c0.5,0.1,1.2,0.1,1.6,0c0.4-0.1,0-0.2-0.9-0.2
	C108.3,241.1,108,241.2,108.5,241.3 M43.4,250.4c-0.5,0.3-0.8,0.6-0.6,0.6s0.8-0.3,1.4-0.6c0.6-0.3,0.8-0.6,0.6-0.6
	S43.9,250.1,43.4,250.4 M144,252.2c1.1,1.1,2.1,2,2.2,2s-0.7-0.9-1.8-2c-1.1-1.1-2.1-2-2.2-2S142.9,251.1,144,252.2 M159.9,262.1
	c1,0.1,2.8,0.1,3.8,0c1-0.1,0.2-0.1-1.9-0.1C159.7,261.9,158.9,262,159.9,262.1 M152.3,262.5c0.6,0.1,1.5,0.1,2,0
	c0.5-0.1,0-0.2-1.1-0.2C152.1,262.3,151.7,262.4,152.3,262.5 M17,268.4c-1,1-1.7,1.8-1.6,1.8s1-0.8,2-1.8c1-1,1.7-1.8,1.6-1.8
	S18,267.4,17,268.4 M-2.1,314.6c0,0.8,0.1,1.1,0.2,0.7c0.1-0.4,0.1-1,0-1.4C-2,313.5-2.1,313.8-2.1,314.6 M-2.5,321.6
	c0,1.3,0.1,1.8,0.2,1.1c0.1-0.7,0.1-1.8,0-2.4C-2.4,319.7-2.5,320.3-2.5,321.6 M195.9,333c0,1.2,0.1,1.7,0.2,1.1
	c0.1-0.6,0.1-1.6,0-2.2C196,331.3,195.9,331.8,195.9,333 M-2.5,342c0,2,0.1,2.8,0.2,1.9c0.1-0.9,0.1-2.5,0-3.6
	C-2.4,339.3-2.5,340-2.5,342 M196.4,345.8c0,3.2,0.1,4.5,0.1,2.9c0.1-1.6,0.1-4.2,0-5.8C196.4,341.3,196.4,342.6,196.4,345.8
	 M195.9,355c0,0.8,0.1,1.1,0.2,0.7c0.1-0.4,0.1-1,0-1.4C196,353.9,195.9,354.2,195.9,355 M188.6,385.5c0,0.1,0.6,0.7,1.3,1.3
	l1.3,1.2l-1.2-1.3C188.9,385.5,188.6,385.2,188.6,385.5 M-3.6,394.2c0,2.8,0.1,3.9,0.1,2.5c0.1-1.4,0.1-3.6,0-5
	C-3.6,390.3-3.6,391.4-3.6,394.2 M182.6,440.3c-0.6,0.8-0.7,1.1-0.3,0.7c0.7-0.5,1.6-2,1.3-2C183.6,439,183.1,439.6,182.6,440.3
	 M16.5,441.3c0.2,0.2,0.6,0.7,0.7,1.1c0.2,0.6,0.2,0.6,0.1-0.2c0-0.5-0.3-1-0.7-1.1C16.2,441,16.2,441,16.5,441.3 M176.5,442.9
	c0.5,0.1,1.3,0.1,1.8,0c0.5-0.1,0.1-0.2-0.9-0.2C176.4,442.7,176,442.8,176.5,442.9 M173.5,447c0,1.9,0.1,2.6,0.2,1.7
	c0.1-0.9,0.1-2.5,0-3.4C173.6,444.4,173.5,445.1,173.5,447 M23.3,463.2c0.4,0.8,0.7,1.3,0.8,1.2c0.2-0.2-1-2.6-1.3-2.6
	C22.7,461.8,22.9,462.4,23.3,463.2 M35.9,500.4c0,1.1,0.1,1.5,0.2,0.9c0.1-0.6,0.1-1.5,0-2C36,498.8,35.9,499.3,35.9,500.4
	 M158.3,508.4c0,2,0.1,2.8,0.2,1.9s0.1-2.5,0-3.6C158.4,505.7,158.3,506.4,158.3,508.4 M35.1,509.4c0,0.8,0.1,1.1,0.2,0.7
	c0.1-0.4,0.1-1,0-1.4C35.2,508.3,35.1,508.6,35.1,509.4 M32.1,524.2c-0.3,1.7,0,2,0.3,0.3c0.2-0.7,0.2-1.3,0.1-1.4
	C32.4,523.1,32.2,523.5,32.1,524.2 M23.1,539.2c-1.9,1.3-2.1,1.7-0.6,0.8c0.7-0.4,1.5-1,1.7-1.3C24.9,538,24.6,538.1,23.1,539.2
	 M170.6,538.4c0,0.1,0.5,0.5,1.2,0.8c0.7,0.3,1.2,0.5,1.2,0.4c0-0.1-0.5-0.5-1.2-0.8C171.1,538.5,170.6,538.3,170.6,538.4
	 M261,577.2c0,0.1,0.5,0.5,1.2,0.8c0.7,0.3,1.2,0.5,1.2,0.4c0-0.1-0.5-0.5-1.2-0.8C261.5,577.3,261,577.1,261,577.2 M273.8,584.4
	c0,0.1,0.5,0.5,1.2,0.8s1.2,0.5,1.2,0.4c0-0.1-0.5-0.5-1.2-0.8S273.8,584.3,273.8,584.4 M-79.6,595.2l-3.2,3l3.3-2.9
	c2.9-2.6,3.6-3.2,3.2-3.2C-76.4,592.2-77.8,593.6-79.6,595.2 M288,594.2c0.9,0.9,1.7,1.6,1.8,1.6c0.1,0-0.5-0.7-1.4-1.6
	s-1.7-1.6-1.8-1.6S287.1,593.3,288,594.2 M-84.9,599.9c-1.3,1.3-1.1,1.5,1.4,1.4l2.3-0.1l-2.1-0.1l-2.1-0.1l0.9-1
	c0.5-0.5,0.8-1,0.7-1S-84.5,599.4-84.9,599.9 M-42.9,601.3c21.1,0.1,55.5,0.1,76.4,0c20.9-0.1,3.7-0.1-38.3-0.1
	S-64,601.2-42.9,601.3"/>
<path id="path4" class="st4" d="M104.1,241.3c0.5,0.1,1.3,0.1,1.8,0c0.5-0.1,0.1-0.2-0.9-0.2S103.6,241.2,104.1,241.3 M109.9,241.7
	c0.4,0.1,1,0.1,1.4,0c0.4-0.1,0.1-0.2-0.7-0.2C109.8,241.5,109.5,241.6,109.9,241.7 M159.3,262.5c1.4,0.1,3.5,0.1,4.8,0
	c1.3-0.1,0.1-0.1-2.5-0.1C159,262.3,157.9,262.4,159.3,262.5 M17.2,268.7l-1.6,1.7l1.7-1.6c1.6-1.5,1.9-1.8,1.6-1.8
	C18.8,267,18.1,267.8,17.2,268.7 M-2.5,332c0,0.9,0.1,1.2,0.2,0.7c0.1-0.5,0.1-1.2,0-1.6C-2.4,330.7-2.5,331.1-2.5,332 M195.9,338.6
	c0,1,0.1,1.4,0.2,0.9c0.1-0.5,0.1-1.3,0-1.8C196,337.2,195.9,337.6,195.9,338.6 M-2.1,348c0,1.1,0.1,1.5,0.2,0.9
	c0.1-0.6,0.1-1.5,0-2C-2,346.4-2.1,346.9-2.1,348 M195.9,351.8c0,0.8,0.1,1.1,0.2,0.7c0.1-0.4,0.1-1,0-1.4
	C196,350.7,195.9,351,195.9,351.8 M173.1,450.2c0,0.8,0.1,1.1,0.2,0.7c0.1-0.4,0.1-1,0-1.4C173.2,449.1,173.1,449.4,173.1,450.2
	 M158.3,500c0,1.1,0.1,1.5,0.2,0.9c0.1-0.6,0.1-1.5,0-2C158.4,498.4,158.3,498.9,158.3,500 M287.4,594c0.7,0.8,1.4,1.4,1.6,1.4
	c0.1,0-0.4-0.6-1.2-1.4s-1.4-1.4-1.6-1.4C286.1,592.6,286.7,593.2,287.4,594 M-81.2,597.1l-1.2,1.3l1.3-1.2c0.7-0.6,1.3-1.2,1.3-1.3
	C-79.8,595.6-80.1,595.9-81.2,597.1 M259.5,601.3c5.9,0.1,15.4,0.1,21.2,0c5.8-0.1,0.9-0.1-10.7-0.1S253.6,601.2,259.5,601.3"/>
</svg>
